<?xml version="1.0" encoding="UTF-8"?>
<!DOCTYPE svg PUBLIC "-//W3C//DTD SVG 1.1//EN" "http://www.w3.org/Graphics/SVG/1.1/DTD/svg11.dtd">
<svg xmlns="http://www.w3.org/2000/svg" version="1.1" width="500px" height="500px" style="shape-rendering:geometricPrecision; text-rendering:geometricPrecision; image-rendering:optimizeQuality; fill-rule:evenodd; clip-rule:evenodd" xmlns:xlink="http://www.w3.org/1999/xlink">
<g><path style="opacity:1" fill="#fefffe" d="M -0.5,-0.5 C 166.167,-0.5 332.833,-0.5 499.5,-0.5C 499.5,166.167 499.5,332.833 499.5,499.5C 332.833,499.5 166.167,499.5 -0.5,499.5C -0.5,332.833 -0.5,166.167 -0.5,-0.5 Z"/></g>
<g><path style="opacity:1" fill="#000000" d="M 37.5,49.5 C 174.833,49.5 312.167,49.5 449.5,49.5C 449.5,182.833 449.5,316.167 449.5,449.5C 312.167,449.5 174.833,449.5 37.5,449.5C 37.5,316.167 37.5,182.833 37.5,49.5 Z"/></g>
<g><path style="opacity:1" fill="#fefefe" d="M 249.5,52.5 C 315.167,52.5 380.833,52.5 446.5,52.5C 446.5,183.833 446.5,315.167 446.5,446.5C 380.833,446.5 315.167,446.5 249.5,446.5C 249.5,315.167 249.5,183.833 249.5,52.5 Z"/></g>
<g><path style="opacity:1" fill="#000000" d="M 254.5,130.5 C 292.501,130.333 330.501,130.5 368.5,131C 392.261,131.631 411.428,141.131 426,159.5C 436.747,181.388 435.747,202.721 423,223.5C 418.425,228.746 413.258,233.246 407.5,237C 433.28,250.394 443.78,271.56 439,300.5C 432.22,323.157 417.386,337.657 394.5,344C 387.914,345.679 381.248,346.845 374.5,347.5C 334.5,347.5 294.5,347.5 254.5,347.5C 254.5,275.167 254.5,202.833 254.5,130.5 Z"/></g>
<g><path style="opacity:1" fill="#fafafa" d="M 125.5,329.5 C 113.833,329.5 102.167,329.5 90.5,329.5C 90.5,322.5 90.5,315.5 90.5,308.5C 104.93,309.073 119.263,308.239 133.5,306C 144.682,301.158 151.182,292.658 153,280.5C 153.5,236.501 153.667,192.501 153.5,148.5C 161.167,148.5 168.833,148.5 176.5,148.5C 176.954,195.524 176.454,242.524 175,289.5C 167.893,314.439 151.393,327.773 125.5,329.5 Z"/></g>
<g><path style="opacity:1" fill="#fafafa" d="M 315.5,176.5 C 328.504,176.333 341.504,176.5 354.5,177C 369.81,182.237 374.31,192.403 368,207.5C 364.16,212.004 359.327,214.838 353.5,216C 340.838,216.5 328.171,216.667 315.5,216.5C 315.5,203.167 315.5,189.833 315.5,176.5 Z"/></g>
<g><path style="opacity:1" fill="#fcfcfc" d="M 315.5,260.5 C 331.557,260.062 347.557,260.562 363.5,262C 374.446,267.061 378.613,275.561 376,287.5C 373.187,295.315 367.687,299.815 359.5,301C 344.837,301.5 330.17,301.667 315.5,301.5C 315.5,287.833 315.5,274.167 315.5,260.5 Z"/></g>
<g><path style="opacity:1" fill="#b9b9b9" d="M 90.5,308.5 C 90.5,315.5 90.5,322.5 90.5,329.5C 102.167,329.5 113.833,329.5 125.5,329.5C 113.678,330.495 101.678,330.828 89.5,330.5C 89.175,322.981 89.5084,315.648 90.5,308.5 Z"/></g>
<g><path style="opacity:1" fill="#373737" d="M 254.5,130.5 C 254.5,202.833 254.5,275.167 254.5,347.5C 294.5,347.5 334.5,347.5 374.5,347.5C 334.337,348.499 294.003,348.832 253.5,348.5C 253.167,275.665 253.501,202.998 254.5,130.5 Z"/></g>
</svg>
