<?xml version="1.0" encoding="UTF-8"?>
<!DOCTYPE svg PUBLIC "-//W3C//DTD SVG 1.1//EN" "http://www.w3.org/Graphics/SVG/1.1/DTD/svg11.dtd">
<svg xmlns="http://www.w3.org/2000/svg" version="1.1" width="350px" height="98px" style="shape-rendering:geometricPrecision; text-rendering:geometricPrecision; image-rendering:optimizeQuality; fill-rule:evenodd; clip-rule:evenodd" xmlns:xlink="http://www.w3.org/1999/xlink">
<g><path style="opacity:1" fill="#f6f6f6" d="M -0.5,-0.5 C 116.167,-0.5 232.833,-0.5 349.5,-0.5C 349.5,-0.166667 349.5,0.166667 349.5,0.5C 233.5,0.5 117.5,0.5 1.5,0.5C 1.5,32.5 1.5,64.5 1.5,96.5C 117.5,96.5 233.5,96.5 349.5,96.5C 349.5,96.8333 349.5,97.1667 349.5,97.5C 232.833,97.5 116.167,97.5 -0.5,97.5C -0.5,64.8333 -0.5,32.1667 -0.5,-0.5 Z"/></g>
<g><path style="opacity:1" fill="#040404" d="M 349.5,0.5 C 349.5,32.5 349.5,64.5 349.5,96.5C 233.5,96.5 117.5,96.5 1.5,96.5C 1.5,64.5 1.5,32.5 1.5,0.5C 117.5,0.5 233.5,0.5 349.5,0.5 Z"/></g>
<g><path style="opacity:1" fill="#fcfcfc" d="M 3.5,3.5 C 117.833,3.5 232.167,3.5 346.5,3.5C 346.5,33.5 346.5,63.5 346.5,93.5C 232.167,93.5 117.833,93.5 3.5,93.5C 3.5,63.5 3.5,33.5 3.5,3.5 Z"/></g>
<g><path style="opacity:1" fill="#010101" d="M 10.5,9.5 C 51.8333,9.5 93.1667,9.5 134.5,9.5C 134.5,35.5 134.5,61.5 134.5,87.5C 93.1667,87.5 51.8333,87.5 10.5,87.5C 10.5,61.5 10.5,35.5 10.5,9.5 Z"/></g>
<g><path style="opacity:1" fill="#dedede" d="M 38.5,34.5 C 39.8333,34.5 41.1667,34.5 42.5,34.5C 42.6663,41.175 42.4996,47.8417 42,54.5C 39.5328,59.6196 35.3662,61.6196 29.5,60.5C 29.5,59.5 29.5,58.5 29.5,57.5C 32.6021,57.846 35.4355,57.1793 38,55.5C 38.4996,48.5079 38.6663,41.5079 38.5,34.5 Z"/></g>
<g><path style="opacity:1" fill="#fafafa" d="M 52.5,34.5 C 53.5,34.5 54.5,34.5 55.5,34.5C 55.5,43.1667 55.5,51.8333 55.5,60.5C 54.5,60.5 53.5,60.5 52.5,60.5C 52.5,51.8333 52.5,43.1667 52.5,34.5 Z"/></g>
<g><path style="opacity:1" fill="#e7e7e7" d="M 66.5,34.5 C 68.3904,34.2965 69.8904,34.9632 71,36.5C 73.7533,41.0076 76.7533,45.3409 80,49.5C 83,44.8333 86,40.1667 89,35.5C 90.3561,34.6198 91.8561,34.2865 93.5,34.5C 93.5,43.1667 93.5,51.8333 93.5,60.5C 92.1667,60.5 90.8333,60.5 89.5,60.5C 89.6662,54.1579 89.4995,47.8246 89,41.5C 86.5106,46.2055 83.3439,50.2055 79.5,53.5C 75.8234,49.9804 72.6567,45.9804 70,41.5C 69.5005,47.8246 69.3338,54.1579 69.5,60.5C 68.5,60.5 67.5,60.5 66.5,60.5C 66.5,51.8333 66.5,43.1667 66.5,34.5 Z"/></g>
<g><path style="opacity:1" fill="#eeeeee" d="M 110.5,34.5 C 112.144,34.2865 113.644,34.6198 115,35.5C 118.275,43.8299 121.442,52.1632 124.5,60.5C 121.344,60.4709 119.678,58.8043 119.5,55.5C 115.205,54.3391 110.871,54.1725 106.5,55C 105.139,56.5843 104.472,58.4176 104.5,60.5C 103.022,60.762 101.689,60.4287 100.5,59.5C 104.123,51.2581 107.456,42.9248 110.5,34.5 Z"/></g>
<g><path style="opacity:1" fill="#060606" d="M 139.5,35.5 C 144.844,35.334 150.177,35.5006 155.5,36C 161.244,39.1323 161.911,43.1323 157.5,48C 162.951,52.754 162.617,57.0873 156.5,61C 150.843,61.4994 145.176,61.6661 139.5,61.5C 139.5,52.8333 139.5,44.1667 139.5,35.5 Z"/></g>
<g><path style="opacity:1" fill="#030303" d="M 165.5,35.5 C 171.5,35.5 177.5,35.5 183.5,35.5C 183.5,37.5 183.5,39.5 183.5,41.5C 179.833,41.5 176.167,41.5 172.5,41.5C 172.5,42.8333 172.5,44.1667 172.5,45.5C 175.833,45.5 179.167,45.5 182.5,45.5C 182.5,47.5 182.5,49.5 182.5,51.5C 179.167,51.5 175.833,51.5 172.5,51.5C 172.5,52.8333 172.5,54.1667 172.5,55.5C 176.167,55.5 179.833,55.5 183.5,55.5C 183.5,57.5 183.5,59.5 183.5,61.5C 177.5,61.5 171.5,61.5 165.5,61.5C 165.5,52.8333 165.5,44.1667 165.5,35.5 Z"/></g>
<g><path style="opacity:1" fill="#020202" d="M 197.5,50.5 C 197.217,49.7109 196.717,49.0442 196,48.5C 195.501,52.8206 195.334,57.1539 195.5,61.5C 193.167,61.5 190.833,61.5 188.5,61.5C 188.5,52.8333 188.5,44.1667 188.5,35.5C 190.527,35.3379 192.527,35.5045 194.5,36C 198.05,39.8826 201.217,44.0493 204,48.5C 204.499,44.1794 204.666,39.8461 204.5,35.5C 206.833,35.5 209.167,35.5 211.5,35.5C 211.5,44.1667 211.5,52.8333 211.5,61.5C 209.473,61.6621 207.473,61.4955 205.5,61C 202.617,57.6235 199.951,54.1235 197.5,50.5 Z"/></g>
<g><path style="opacity:1" fill="#111111" d="M 223.5,35.5 C 226.167,35.5 228.833,35.5 231.5,35.5C 231.666,41.5092 231.499,47.5092 231,53.5C 230.5,58 228,60.5 223.5,61C 220.854,61.4974 218.187,61.6641 215.5,61.5C 215.5,59.1667 215.5,56.8333 215.5,54.5C 218.119,54.7683 220.619,54.435 223,53.5C 223.499,47.5092 223.666,41.5092 223.5,35.5 Z"/></g>
<g><path style="opacity:1" fill="#070707" d="M 243.5,35.5 C 246.448,35.2229 249.281,35.5562 252,36.5C 255.069,44.5397 258.235,52.5397 261.5,60.5C 260.167,60.8333 258.833,61.1667 257.5,61.5C 254.494,59.8647 251.327,58.5314 248,57.5C 244.406,56.717 242.573,58.0504 242.5,61.5C 239.833,61.5 237.167,61.5 234.5,61.5C 237.5,52.8333 240.5,44.1667 243.5,35.5 Z"/></g>
<g><path style="opacity:1" fill="#080808" d="M 287.5,61.5 C 287.666,57.1539 287.499,52.8206 287,48.5C 286.283,49.0442 285.783,49.7109 285.5,50.5C 281.149,57.3083 277.149,56.9749 273.5,49.5C 273.44,48.9569 273.107,48.6236 272.5,48.5C 271.508,52.7828 271.174,57.1161 271.5,61.5C 269.167,61.5 266.833,61.5 264.5,61.5C 264.5,52.8333 264.5,44.1667 264.5,35.5C 266.857,35.3367 269.19,35.5034 271.5,36C 273.948,40.1149 276.781,43.9482 280,47.5C 282.467,43.3996 285.301,39.5662 288.5,36C 290.473,35.5045 292.473,35.3379 294.5,35.5C 294.5,44.1667 294.5,52.8333 294.5,61.5C 292.167,61.5 289.833,61.5 287.5,61.5 Z"/></g>
<g><path style="opacity:1" fill="#000000" d="M 300.5,35.5 C 302.833,35.5 305.167,35.5 307.5,35.5C 307.5,44.1667 307.5,52.8333 307.5,61.5C 305.167,61.5 302.833,61.5 300.5,61.5C 300.5,52.8333 300.5,44.1667 300.5,35.5 Z"/></g>
<g><path style="opacity:1" fill="#020202" d="M 322.5,50.5 C 322.217,49.7109 321.717,49.0442 321,48.5C 320.501,52.8206 320.334,57.1539 320.5,61.5C 318.167,61.5 315.833,61.5 313.5,61.5C 313.5,52.8333 313.5,44.1667 313.5,35.5C 315.527,35.3379 317.527,35.5045 319.5,36C 323.05,39.8826 326.217,44.0493 329,48.5C 329.499,44.1794 329.666,39.8461 329.5,35.5C 331.833,35.5 334.167,35.5 336.5,35.5C 336.5,44.1667 336.5,52.8333 336.5,61.5C 334.473,61.6621 332.473,61.4955 330.5,61C 327.617,57.6235 324.951,54.1235 322.5,50.5 Z"/></g>
<g><path style="opacity:1" fill="#111111" d="M 112.5,39.5 C 114.391,42.9572 116.058,46.6239 117.5,50.5C 114.216,51.657 110.882,51.8236 107.5,51C 109.31,47.2143 110.977,43.381 112.5,39.5 Z"/></g>
<g><path style="opacity:1" fill="#e6e6e6" d="M 146.5,40.5 C 149.596,39.9066 151.929,40.9066 153.5,43.5C 153.291,44.086 152.957,44.586 152.5,45C 150.527,45.4955 148.527,45.6621 146.5,45.5C 146.5,43.8333 146.5,42.1667 146.5,40.5 Z"/></g>
<g><path style="opacity:1" fill="#dedede" d="M 247.5,44.5 C 249.267,46.7916 250.267,49.4582 250.5,52.5C 248.833,52.5 247.167,52.5 245.5,52.5C 245.584,49.6726 246.25,47.006 247.5,44.5 Z"/></g>
<g><path style="opacity:1" fill="#3d3d3d" d="M 273.5,49.5 C 272.833,53.5 272.167,57.5 271.5,61.5C 271.174,57.1161 271.508,52.7828 272.5,48.5C 273.107,48.6236 273.44,48.9569 273.5,49.5 Z"/></g>
<g><path style="opacity:1" fill="#b8b8b8" d="M 197.5,50.5 C 196.833,54.1667 196.167,57.8333 195.5,61.5C 195.334,57.1539 195.501,52.8206 196,48.5C 196.717,49.0442 197.217,49.7109 197.5,50.5 Z"/></g>
<g><path style="opacity:1" fill="#b7b7b7" d="M 287.5,61.5 C 286.833,57.8333 286.167,54.1667 285.5,50.5C 285.783,49.7109 286.283,49.0442 287,48.5C 287.499,52.8206 287.666,57.1539 287.5,61.5 Z"/></g>
<g><path style="opacity:1" fill="#b8b8b8" d="M 322.5,50.5 C 321.833,54.1667 321.167,57.8333 320.5,61.5C 320.334,57.1539 320.501,52.8206 321,48.5C 321.717,49.0442 322.217,49.7109 322.5,50.5 Z"/></g>
<g><path style="opacity:1" fill="#e7e7e7" d="M 146.5,50.5 C 148.527,50.3379 150.527,50.5045 152.5,51C 153.38,52.3561 153.714,53.8561 153.5,55.5C 151.167,55.5 148.833,55.5 146.5,55.5C 146.5,53.8333 146.5,52.1667 146.5,50.5 Z"/></g>
</svg>
